<?xml version="1.0" standalone="no"?>
<!DOCTYPE svg PUBLIC "-//W3C//DTD SVG 20010904//EN"
 "http://www.w3.org/TR/2001/REC-SVG-20010904/DTD/svg10.dtd">
<svg version="1.0" xmlns="http://www.w3.org/2000/svg"
 width="1024.000000pt" height="1024.000000pt" viewBox="0 0 1024.000000 1024.000000"
 preserveAspectRatio="xMidYMid meet">

<g transform="translate(0.000000,1024.000000) scale(0.100000,-0.100000)"
fill="#000000" stroke="none">
<path d="M1515 9290 c3 -5 8 -10 11 -10 2 0 4 5 4 10 0 6 -5 10 -11 10 -5 0
-7 -4 -4 -10z"/>
<path d="M3387 8429 c7 -7 15 -10 18 -7 3 3 -2 9 -12 12 -14 6 -15 5 -6 -5z"/>
<path d="M6335 8319 c-4 -6 -5 -12 -2 -15 2 -3 7 2 10 11 7 17 1 20 -8 4z"/>
<path d="M6820 7931 c0 -6 4 -13 10 -16 6 -3 7 1 4 9 -7 18 -14 21 -14 7z"/>
<path d="M6900 7881 c0 -6 4 -13 10 -16 6 -3 7 1 4 9 -7 18 -14 21 -14 7z"/>
<path d="M220 7806 c0 -2 8 -10 18 -17 15 -13 16 -12 3 4 -13 16 -21 21 -21
13z"/>
<path d="M2946 7437 c3 -10 9 -15 12 -12 3 3 0 11 -7 18 -10 9 -11 8 -5 -6z"/>
<path d="M5609 7302 c-21 -9 -177 -161 -190 -185 -14 -24 0 -44 98 -146 57
-59 85 -81 103 -81 36 0 210 175 210 211 0 20 -23 48 -95 118 -52 50 -98 91
-102 90 -4 0 -15 -3 -24 -7z"/>
<path d="M6720 7291 c0 -6 4 -13 10 -16 6 -3 7 1 4 9 -7 18 -14 21 -14 7z"/>
<path d="M6915 7200 c-3 -6 1 -7 9 -4 18 7 21 14 7 14 -6 0 -13 -4 -16 -10z"/>
<path d="M7310 6951 c0 -6 4 -13 10 -16 6 -3 7 1 4 9 -7 18 -14 21 -14 7z"/>
<path d="M5223 6832 c-50 -48 -94 -97 -98 -110 -6 -20 8 -38 89 -118 66 -65
103 -94 119 -94 30 0 207 174 207 205 0 27 -178 205 -205 205 -11 -1 -61 -40
-112 -88z"/>
<path d="M5839 6833 c-118 -115 -118 -118 0 -235 61 -60 97 -88 113 -88 30 0
208 176 208 206 0 29 -180 204 -210 204 -15 0 -53 -29 -111 -87z"/>
<path d="M3966 6577 c3 -10 9 -15 12 -12 3 3 0 11 -7 18 -10 9 -11 8 -5 -6z"/>
<path d="M5846 6122 c-2 -4 -67 -36 -144 -71 l-139 -64 17 -56 c26 -82 43
-237 38 -344 -7 -166 -55 -224 -208 -248 -92 -14 -201 -5 -258 23 -24 11 -57
39 -74 62 -17 22 -82 146 -144 274 -63 127 -118 232 -123 232 -8 0 -181 -175
-194 -197 -5 -8 12 -37 41 -75 67 -86 169 -242 198 -303 27 -56 32 -154 12
-202 -68 -157 -350 -408 -600 -534 -76 -38 -304 -119 -335 -119 -14 0 47 -39
101 -64 91 -43 144 -56 233 -56 104 0 178 23 273 84 170 110 302 275 446 555
26 51 52 95 59 97 6 3 45 -6 86 -20 194 -64 397 -30 539 91 l41 35 72 -55
c112 -86 234 -116 395 -97 121 14 216 54 301 129 27 24 40 20 108 -36 109 -88
171 -97 591 -90 328 6 443 14 548 37 46 10 55 17 87 63 133 193 163 469 81
732 -27 86 -83 215 -93 215 -3 0 -22 -22 -41 -47 -19 -26 -68 -82 -108 -125
l-74 -78 31 -38 c78 -99 137 -266 143 -404 l3 -73 -65 -7 c-109 -12 -739 -18
-834 -8 -110 12 -146 23 -178 58 -61 64 -65 89 -73 402 -5 203 -13 320 -22
320 -3 0 -266 -130 -271 -135 -1 -1 7 -24 18 -51 40 -93 60 -201 60 -329 0
-146 -19 -197 -84 -229 -77 -38 -304 -38 -375 -2 -17 9 -41 35 -53 59 -23 42
-23 46 -20 370 2 180 1 327 -2 327 -3 0 -7 -3 -10 -8z"/>
<path d="M3635 6090 c-164 -25 -298 -93 -415 -210 -95 -95 -140 -164 -176
-271 -25 -75 -33 -182 -18 -244 29 -123 150 -233 325 -299 37 -14 143 -43 235
-66 249 -61 284 -77 284 -133 0 -92 -287 -221 -570 -256 -313 -39 -586 30
-731 185 -63 68 -94 125 -120 219 -19 69 -21 96 -16 210 8 195 64 357 186 539
29 43 51 80 48 82 -19 19 -222 -270 -287 -409 -71 -150 -119 -389 -105 -522
30 -292 189 -480 470 -557 69 -19 106 -22 265 -22 209 0 301 13 487 70 196 59
326 136 445 262 88 94 137 194 145 296 7 89 -6 134 -55 188 -46 51 -106 81
-239 118 -59 17 -164 46 -233 66 -280 79 -409 188 -372 312 37 122 157 196
359 224 70 10 98 9 183 -6 102 -18 204 -53 252 -87 14 -10 30 -19 35 -19 4 0
30 57 56 127 36 97 44 129 35 135 -28 18 -168 57 -242 67 -86 12 -155 12 -231
1z"/>
<path d="M9077 4939 c7 -7 15 -10 18 -7 3 3 -2 9 -12 12 -14 6 -15 5 -6 -5z"/>
<path d="M8241 4854 c0 -11 3 -14 6 -6 3 7 2 16 -1 19 -3 4 -6 -2 -5 -13z"/>
<path d="M263 4795 c0 -8 4 -12 9 -9 5 3 6 10 3 15 -9 13 -12 11 -12 -6z"/>
<path d="M7412 4706 c-51 -51 -92 -102 -92 -112 0 -10 42 -60 93 -111 68 -68
100 -93 118 -93 19 0 50 25 117 94 51 52 92 102 92 112 0 11 -41 60 -93 112
-68 68 -99 92 -118 92 -19 0 -49 -24 -117 -94z"/>
<path d="M5485 4650 c3 -5 8 -10 11 -10 2 0 4 5 4 10 0 6 -5 10 -11 10 -5 0
-7 -4 -4 -10z"/>
<path d="M2633 4285 c0 -8 4 -12 9 -9 5 3 6 10 3 15 -9 13 -12 11 -12 -6z"/>
<path d="M9930 3919 c0 -5 5 -7 10 -4 6 3 10 8 10 11 0 2 -4 4 -10 4 -5 0 -10
-5 -10 -11z"/>
<path d="M7001 3834 c0 -11 3 -14 6 -6 3 7 2 16 -1 19 -3 4 -6 -2 -5 -13z"/>
<path d="M2831 3744 c0 -11 3 -14 6 -6 3 7 2 16 -1 19 -3 4 -6 -2 -5 -13z"/>
<path d="M6955 3700 c-3 -6 1 -7 9 -4 18 7 21 14 7 14 -6 0 -13 -4 -16 -10z"/>
<path d="M4110 3680 c0 -5 5 -10 11 -10 5 0 7 5 4 10 -3 6 -8 10 -11 10 -2 0
-4 -4 -4 -10z"/>
<path d="M1800 3570 c-9 -6 -10 -10 -3 -10 6 0 15 5 18 10 8 12 4 12 -15 0z"/>
<path d="M8435 3520 c3 -5 8 -10 11 -10 2 0 4 5 4 10 0 6 -5 10 -11 10 -5 0
-7 -4 -4 -10z"/>
<path d="M3679 3353 c-13 -16 -12 -17 4 -4 16 13 21 21 13 21 -2 0 -10 -8 -17
-17z"/>
<path d="M3280 3000 c-9 -6 -10 -10 -3 -10 6 0 15 5 18 10 8 12 4 12 -15 0z"/>
<path d="M2756 2748 c3 -4 11 -5 19 -1 21 7 19 12 -4 10 -11 0 -18 -5 -15 -9z"/>
<path d="M5676 2748 c3 -5 10 -6 15 -3 13 9 11 12 -6 12 -8 0 -12 -4 -9 -9z"/>
<path d="M8636 2693 c-6 -14 -5 -15 5 -6 7 7 10 15 7 18 -3 3 -9 -2 -12 -12z"/>
<path d="M5930 2576 c0 -2 8 -10 18 -17 15 -13 16 -12 3 4 -13 16 -21 21 -21
13z"/>
<path d="M3295 2560 c3 -5 8 -10 11 -10 2 0 4 5 4 10 0 6 -5 10 -11 10 -5 0
-7 -4 -4 -10z"/>
<path d="M10170 2560 c-9 -6 -10 -10 -3 -10 6 0 15 5 18 10 8 12 4 12 -15 0z"/>
<path d="M5180 2490 c-9 -6 -10 -10 -3 -10 6 0 15 5 18 10 8 12 4 12 -15 0z"/>
<path d="M6946 2378 c3 -5 10 -6 15 -3 13 9 11 12 -6 12 -8 0 -12 -4 -9 -9z"/>
<path d="M3526 2233 c-6 -14 -5 -15 5 -6 7 7 10 15 7 18 -3 3 -9 -2 -12 -12z"/>
<path d="M2130 2080 c-9 -6 -10 -10 -3 -10 6 0 15 5 18 10 8 12 4 12 -15 0z"/>
<path d="M5131 1714 c0 -11 3 -14 6 -6 3 7 2 16 -1 19 -3 4 -6 -2 -5 -13z"/>
<path d="M7188 1723 c7 -3 16 -2 19 1 4 3 -2 6 -13 5 -11 0 -14 -3 -6 -6z"/>
<path d="M5196 1703 c-6 -14 -5 -15 5 -6 7 7 10 15 7 18 -3 3 -9 -2 -12 -12z"/>
<path d="M3197 1679 c7 -7 15 -10 18 -7 3 3 -2 9 -12 12 -14 6 -15 5 -6 -5z"/>
<path d="M3109 1523 c-13 -16 -12 -17 4 -4 16 13 21 21 13 21 -2 0 -10 -8 -17
-17z"/>
<path d="M7755 1460 c3 -5 8 -10 11 -10 2 0 4 5 4 10 0 6 -5 10 -11 10 -5 0
-7 -4 -4 -10z"/>
<path d="M6520 1361 c0 -6 4 -13 10 -16 6 -3 7 1 4 9 -7 18 -14 21 -14 7z"/>
<path d="M5228 1293 c7 -3 16 -2 19 1 4 3 -2 6 -13 5 -11 0 -14 -3 -6 -6z"/>
<path d="M4907 1279 c7 -7 15 -10 18 -7 3 3 -2 9 -12 12 -14 6 -15 5 -6 -5z"/>
<path d="M9860 1280 c-9 -6 -10 -10 -3 -10 6 0 15 5 18 10 8 12 4 12 -15 0z"/>
<path d="M9515 1009 c-4 -6 -5 -12 -2 -15 2 -3 7 2 10 11 7 17 1 20 -8 4z"/>
<path d="M2316 913 c-6 -14 -5 -15 5 -6 7 7 10 15 7 18 -3 3 -9 -2 -12 -12z"/>
<path d="M1756 753 c-6 -14 -5 -15 5 -6 7 7 10 15 7 18 -3 3 -9 -2 -12 -12z"/>
<path d="M3115 760 c3 -5 8 -10 11 -10 2 0 4 5 4 10 0 6 -5 10 -11 10 -5 0 -7
-4 -4 -10z"/>
<path d="M5750 729 c0 -5 5 -7 10 -4 6 3 10 8 10 11 0 2 -4 4 -10 4 -5 0 -10
-5 -10 -11z"/>
<path d="M2203 639 c-2 -23 3 -25 10 -4 4 8 3 16 -1 19 -4 3 -9 -4 -9 -15z"/>
<path d="M8641 374 c0 -11 3 -14 6 -6 3 7 2 16 -1 19 -3 4 -6 -2 -5 -13z"/>
<path d="M6036 327 c3 -10 9 -15 12 -12 3 3 0 11 -7 18 -10 9 -11 8 -5 -6z"/>
<path d="M2345 319 c-4 -6 -5 -12 -2 -15 2 -3 7 2 10 11 7 17 1 20 -8 4z"/>
<path d="M10060 186 c0 -2 8 -10 18 -17 15 -13 16 -12 3 4 -13 16 -21 21 -21
13z"/>
<path d="M495 80 c3 -5 8 -10 11 -10 2 0 4 5 4 10 0 6 -5 10 -11 10 -5 0 -7
-4 -4 -10z"/>
</g>
</svg>
