<?xml version="1.0" standalone="no"?>
<!DOCTYPE svg PUBLIC "-//W3C//DTD SVG 20010904//EN"
 "http://www.w3.org/TR/2001/REC-SVG-20010904/DTD/svg10.dtd">
<svg version="1.0" xmlns="http://www.w3.org/2000/svg"
 width="1536.000000pt" height="1024.000000pt" viewBox="0 0 1536.000000 1024.000000"
 preserveAspectRatio="xMidYMid meet">

<g transform="translate(0.000000,1024.000000) scale(0.100000,-0.100000)"
fill="#000000" stroke="none">
<path d="M2330 6270 l0 -1090 210 0 210 0 1 53 c1 28 4 77 8 107 l6 55 27 -41
c56 -86 172 -160 304 -194 97 -25 260 -27 353 -4 269 65 452 269 518 574 27
129 25 394 -5 514 -45 181 -152 359 -266 444 -127 94 -258 134 -436 134 -175
-1 -303 -54 -432 -180 l-48 -46 0 382 0 382 -225 0 -225 0 0 -1090z m992 178
c96 -44 158 -127 194 -259 25 -89 25 -309 0 -398 -36 -132 -104 -219 -209
-267 -55 -26 -73 -29 -162 -29 -91 0 -105 3 -158 29 -69 35 -145 113 -182 186
-75 147 -72 408 5 560 28 55 94 125 145 155 102 60 263 70 367 23z"/>
<path d="M7180 6270 l0 -1090 224 0 224 0 4 518 c5 590 3 572 91 668 73 81
113 99 217 99 101 0 166 -25 223 -83 83 -85 92 -162 82 -750 l-7 -452 229 2
228 3 0 565 c0 637 0 631 -77 790 -93 192 -265 292 -508 293 -173 1 -277 -41
-399 -160 -41 -40 -75 -73 -77 -73 -2 0 -4 171 -4 380 l0 380 -225 0 -225 0 0
-1090z"/>
<path d="M6205 6830 c-133 -21 -263 -78 -339 -148 -59 -55 -116 -144 -137
-214 -18 -58 -21 -88 -17 -171 6 -132 35 -202 117 -281 95 -90 199 -132 486
-196 190 -42 256 -65 300 -103 34 -29 39 -39 42 -88 6 -69 -21 -112 -92 -148
-44 -23 -61 -26 -155 -26 -143 0 -207 21 -277 91 -33 32 -56 66 -64 92 l-12
42 -184 0 -183 0 0 -37 c0 -64 28 -171 61 -238 62 -127 181 -211 354 -251 122
-29 449 -26 559 4 223 62 343 169 399 358 48 161 17 339 -79 453 -76 91 -172
129 -479 190 -139 28 -264 58 -289 71 -57 27 -86 72 -86 133 0 97 93 151 260
151 112 0 179 -22 236 -80 24 -23 46 -54 50 -68 l6 -26 180 0 181 0 -7 49
c-17 127 -77 240 -168 312 -114 90 -245 129 -458 134 -80 2 -172 0 -205 -5z"/>
<path d="M9594 6825 c-121 -26 -217 -92 -285 -198 l-38 -59 -3 104 -3 103
-211 3 -211 2 -7 -69 c-3 -38 -6 -398 -6 -800 l0 -731 225 0 225 0 0 416 c0
460 5 507 63 617 71 136 184 192 372 185 l105 -3 0 223 0 222 -82 -1 c-46 0
-110 -7 -144 -14z"/>
<path d="M10450 6829 c-206 -28 -377 -133 -480 -295 -29 -46 -62 -139 -74
-212 l-6 -32 201 2 201 3 13 39 c18 53 44 85 91 118 55 38 116 53 214 53 138
0 212 -40 245 -134 19 -54 19 -82 0 -127 -24 -59 -77 -76 -370 -119 -331 -49
-455 -93 -560 -199 -76 -76 -105 -145 -112 -266 -10 -158 28 -270 123 -371
105 -109 237 -151 469 -151 155 1 252 20 345 67 50 25 140 107 140 126 0 5 5
9 10 9 6 0 10 -28 10 -64 0 -104 -17 -96 221 -96 161 0 209 3 209 13 0 6 -5
30 -11 52 -7 25 -14 245 -19 600 -7 615 -6 602 -72 727 -62 117 -197 209 -358
244 -92 19 -328 26 -430 13z m430 -931 c0 -107 -19 -221 -45 -275 -54 -109
-170 -173 -314 -173 -165 0 -261 71 -261 192 1 124 106 215 295 252 73 15 282
51 313 55 8 1 12 -15 12 -51z"/>
<path d="M4102 6163 c3 -617 3 -618 26 -683 80 -226 260 -344 522 -343 206 0
369 69 455 193 15 22 32 40 36 40 5 0 9 -43 9 -95 l0 -95 220 0 220 0 0 800 0
800 -225 0 -226 0 1 -482 c1 -481 -1 -531 -34 -610 -53 -127 -212 -195 -367
-158 -64 16 -132 74 -163 140 -20 44 -21 61 -24 578 l-3 532 -225 0 -225 0 3
-617z"/>
<path d="M3783 5082 l-223 -2 0 -365 c0 -237 -4 -365 -10 -365 -5 0 -10 4 -10
8 0 20 -87 93 -144 121 -84 41 -170 61 -301 67 -204 11 -354 -42 -480 -170
-140 -142 -212 -319 -234 -574 -19 -218 16 -432 97 -587 22 -42 67 -101 111
-148 62 -64 90 -86 165 -122 106 -52 209 -75 331 -75 180 0 321 50 429 151 73
68 76 66 76 -42 l0 -69 215 0 215 0 0 1084 c0 597 -3 1086 -7 1088 -5 2 -108
2 -230 0z m-426 -914 c106 -39 195 -153 228 -289 19 -82 19 -255 0 -337 -32
-137 -116 -246 -230 -299 -52 -24 -72 -28 -155 -28 -82 0 -103 4 -151 26 -163
77 -237 238 -226 493 5 121 20 185 62 266 25 49 104 129 150 153 93 49 217 55
322 15z"/>
<path d="M5830 3995 l0 -1085 220 0 220 0 0 263 0 262 93 93 92 92 213 -355
213 -355 255 0 c139 0 254 2 254 4 0 3 -56 94 -124 203 -178 285 -461 744
-475 772 -13 23 -2 35 273 310 157 157 286 289 286 291 0 3 -114 7 -253 8
l-252 3 -288 -289 -287 -290 2 579 3 579 -223 0 -222 0 0 -1085z"/>
<path d="M7450 3995 l0 -1085 225 0 224 0 3 533 c3 500 4 534 22 567 34 63 85
116 138 146 47 26 63 29 138 29 97 0 152 -21 213 -80 77 -75 87 -164 79 -752
l-5 -443 226 0 227 0 0 538 c-1 583 -4 628 -55 757 -91 228 -244 330 -516 342
-100 5 -127 3 -185 -15 -87 -27 -147 -66 -223 -148 l-61 -65 0 381 0 380 -225
0 -225 0 0 -1085z"/>
<path d="M9658 4540 c-148 -27 -252 -76 -345 -164 -101 -95 -159 -203 -176
-328 l-6 -38 200 0 c181 0 200 2 205 18 45 141 135 197 319 197 87 0 107 -3
150 -25 41 -20 55 -35 78 -79 46 -92 30 -173 -40 -206 -43 -21 -138 -40 -288
-60 -335 -43 -466 -87 -577 -193 -71 -67 -104 -132 -120 -234 -39 -256 102
-465 362 -535 93 -25 368 -25 460 1 91 25 154 62 210 122 l47 53 7 -46 c3 -25
6 -61 6 -79 l0 -34 211 0 211 0 -7 33 c-4 17 -10 284 -15 592 -5 389 -11 575
-20 610 -48 193 -187 329 -391 381 -73 18 -403 28 -481 14z m450 -1005 c-8
-178 -60 -271 -183 -326 -69 -31 -226 -39 -291 -14 -120 46 -167 157 -115 272
41 89 137 132 396 174 99 17 182 32 185 35 10 11 12 -31 8 -141z"/>
<path d="M11430 4534 c-100 -27 -204 -103 -241 -177 -30 -58 -36 -48 -38 68
l-1 75 -220 0 -220 0 0 -795 0 -795 219 0 220 0 3 523 c3 521 3 522 26 572 54
116 169 182 301 173 104 -8 174 -53 219 -143 42 -85 45 -132 37 -642 l-7 -483
226 0 226 0 0 558 c0 525 -1 562 -20 642 -58 240 -191 380 -406 425 -88 19
-253 18 -324 -1z"/>
<path d="M4170 3912 c0 -554 1 -593 20 -666 49 -194 172 -316 362 -361 74 -17
254 -20 330 -4 117 24 234 99 310 199 l27 35 1 -102 0 -103 220 0 220 0 0 795
0 795 -229 0 -229 0 2 -487 c1 -484 1 -489 -22 -562 -19 -58 -33 -83 -71 -121
-64 -64 -124 -84 -241 -78 -114 5 -170 36 -215 118 l-30 55 -3 538 -3 537
-224 0 -225 0 0 -588z"/>
</g>
</svg>
