<?xml version="1.0" standalone="no"?>
<!DOCTYPE svg PUBLIC "-//W3C//DTD SVG 20010904//EN"
 "http://www.w3.org/TR/2001/REC-SVG-20010904/DTD/svg10.dtd">
<svg version="1.0" xmlns="http://www.w3.org/2000/svg"
 width="1536.000000pt" height="1024.000000pt" viewBox="0 0 1536.000000 1024.000000"
 preserveAspectRatio="xMidYMid meet">

<g transform="translate(0.000000,1024.000000) scale(0.100000,-0.100000)"
fill="#000000" stroke="none">
<path d="M0 5120 l0 -5120 7680 0 7680 0 0 5120 0 5120 -7680 0 -7680 0 0
-5120z m3270 1914 l0 -336 56 52 c104 95 213 134 369 132 190 -2 327 -50 436
-155 144 -138 211 -317 212 -562 1 -190 -39 -355 -117 -484 -47 -76 -141 -171
-208 -210 -110 -62 -279 -86 -424 -60 -91 16 -212 79 -276 143 l-55 56 -7 -38
c-3 -20 -6 -56 -6 -79 l0 -43 -190 0 -190 0 0 953 c0 525 3 957 7 960 3 4 93
7 200 7 l193 0 0 -336z m4310 -10 l0 -346 73 74 c113 116 224 157 395 145 194
-14 324 -93 400 -244 65 -129 65 -127 69 -690 l4 -513 -199 0 -199 0 5 438 c4
382 3 445 -11 493 -22 75 -53 118 -111 154 -46 28 -56 30 -145 30 -132 0 -186
-32 -237 -140 -38 -82 -44 -157 -44 -577 l0 -398 -195 0 -195 0 0 960 0 960
195 0 195 0 0 -346z m-1020 -125 c165 -12 271 -52 361 -136 70 -66 108 -139
133 -255 l6 -28 -169 0 -169 0 -7 27 c-11 44 -42 80 -90 103 -41 20 -58 22
-158 18 -95 -3 -118 -7 -153 -27 -50 -28 -69 -60 -68 -113 2 -53 18 -81 63
-106 36 -21 166 -50 316 -72 276 -41 428 -158 464 -357 20 -106 -9 -239 -70
-329 -65 -96 -158 -156 -305 -195 -109 -30 -374 -33 -479 -5 -141 37 -260 118
-318 217 -31 53 -57 147 -57 206 l0 43 168 0 167 0 18 -49 c37 -105 138 -156
295 -149 144 5 212 54 212 151 0 90 -49 119 -319 182 -284 67 -354 96 -437
183 -110 114 -114 319 -9 477 39 58 86 99 165 143 68 37 110 51 208 67 92 15
88 15 232 4z m2950 -190 l0 -191 -32 9 c-18 4 -67 8 -108 8 -137 -1 -248 -74
-308 -203 l-27 -57 -3 -412 -3 -413 -194 0 -195 0 0 178 c0 98 3 416 7 705 l6
527 184 0 183 0 0 -107 1 -108 23 39 c82 133 229 214 389 215 l77 1 0 -191z
m1020 162 c173 -51 257 -134 307 -304 13 -42 18 -144 24 -552 4 -275 11 -515
14 -532 l7 -33 -180 0 -180 0 -6 28 c-3 15 -8 46 -11 69 l-6 41 -35 -37 c-41
-46 -127 -93 -214 -117 -92 -25 -320 -26 -410 -1 -140 38 -228 106 -282 215
-31 63 -33 72 -33 177 0 105 2 114 33 177 82 167 262 248 618 278 154 13 223
31 267 70 30 26 32 33 32 92 0 81 -24 125 -85 156 -40 21 -56 23 -150 20 -83
-3 -114 -8 -145 -25 -51 -27 -100 -78 -120 -125 l-15 -38 -181 0 -182 0 5 50
c12 127 130 277 271 344 123 60 221 76 417 72 133 -3 180 -8 240 -25z m-5680
-464 c0 -483 2 -510 50 -577 39 -54 92 -75 195 -75 73 0 98 4 130 22 53 28 89
68 117 128 23 50 23 54 26 503 l3 452 197 -2 197 -3 3 -702 2 -703 -201 0
-202 0 6 107 6 107 -28 -50 c-81 -141 -248 -217 -437 -200 -248 23 -419 166
-454 382 -6 33 -10 285 -10 562 l0 502 200 0 200 0 0 -453z m-360 -2042 l0
-945 -175 0 c-132 0 -177 3 -180 13 -2 6 -6 38 -10 70 l-7 59 -33 -40 c-42
-48 -150 -106 -236 -127 -35 -8 -103 -15 -150 -15 -290 0 -508 168 -591 455
-20 70 -23 102 -23 260 0 158 3 190 23 260 105 362 377 536 720 460 88 -19
172 -62 230 -118 l32 -31 0 315 c0 174 3 319 7 322 3 4 93 7 200 7 l193 0 0
-945z m2030 445 c0 -275 3 -500 8 -500 4 0 29 24 56 53 28 28 135 139 240 245
l190 192 219 0 219 0 -241 -247 c-133 -136 -241 -251 -241 -255 0 -4 46 -83
103 -175 57 -93 126 -205 153 -249 123 -203 270 -433 277 -434 4 0 7 421 7
935 l0 935 190 0 190 0 2 -335 3 -335 38 47 c85 105 178 145 336 145 226 0
384 -80 461 -232 57 -112 60 -145 60 -687 l0 -493 -190 0 -190 0 0 438 c0 467
-2 495 -49 561 -61 85 -216 118 -324 68 -39 -18 -63 -37 -86 -70 -58 -84 -61
-117 -61 -579 l0 -418 -415 0 -415 0 -176 298 c-97 163 -182 303 -188 310 -10
10 -29 -5 -94 -72 l-82 -84 0 -226 0 -226 -195 0 -195 0 0 938 c0 516 3 942 7
945 3 4 91 7 195 7 l188 0 0 -500z m3360 5 c183 -48 287 -145 332 -311 7 -24
14 -239 18 -539 4 -275 10 -510 15 -522 l7 -23 -185 0 -185 0 -7 75 -7 75 -45
-50 c-91 -101 -196 -141 -374 -141 -124 0 -161 4 -249 28 -171 48 -265 145
-292 301 -23 134 14 255 107 349 97 96 253 152 486 172 214 19 304 44 329 90
5 11 10 46 10 79 0 74 -26 117 -90 150 -40 21 -56 23 -145 20 -114 -4 -157
-20 -215 -78 -20 -20 -40 -51 -46 -70 l-10 -35 -177 -3 c-97 -1 -177 1 -177 6
0 28 36 135 61 183 37 70 126 157 195 192 54 27 137 54 212 67 76 14 358 4
432 -15z m1408 -1 c180 -37 300 -151 347 -331 12 -47 15 -147 15 -560 l0 -503
-185 0 -185 0 2 443 c3 484 3 484 -58 564 -43 57 -96 77 -199 78 -77 0 -96 -4
-132 -24 -45 -26 -80 -69 -110 -136 -16 -36 -18 -84 -21 -482 l-3 -443 -190 0
-189 0 0 690 0 690 188 -2 187 -3 5 -74 5 -73 33 41 c99 124 276 169 490 125z
m-6226 -391 c-5 -534 7 -619 101 -681 35 -23 53 -27 131 -30 84 -3 95 -1 146
25 59 31 109 93 131 161 8 25 13 177 16 470 l5 432 194 0 194 0 0 -690 0 -690
-184 0 c-124 0 -187 4 -192 11 -3 6 -6 49 -6 96 l0 85 -18 -30 c-108 -178
-439 -257 -656 -158 -103 47 -177 130 -225 251 l-24 60 -3 533 -3 532 199 0
198 0 -4 -377z"/>
<path d="M3494 6559 c-190 -60 -294 -303 -240 -560 18 -84 43 -133 96 -188 91
-94 249 -128 374 -80 114 42 204 160 226 294 14 88 12 197 -6 276 -28 126
-127 239 -232 269 -57 15 -150 11 -218 -11z"/>
<path d="M10446 6100 c-16 -5 -72 -14 -125 -20 -235 -26 -297 -45 -350 -106
-34 -38 -46 -85 -38 -151 10 -93 74 -136 209 -141 108 -5 169 13 233 70 49 43
77 89 93 153 13 50 23 205 14 204 -4 0 -20 -5 -36 -9z"/>
<path d="M3663 4496 c-140 -67 -210 -219 -200 -436 5 -117 25 -183 76 -251 67
-93 167 -136 291 -127 174 13 283 152 297 379 13 203 -51 354 -178 424 -46 25
-67 30 -144 33 -79 3 -96 0 -142 -22z"/>
<path d="M9808 4055 c-2 -3 -67 -12 -144 -20 -220 -24 -291 -51 -333 -125 -20
-35 -23 -52 -19 -110 3 -56 8 -74 28 -95 42 -45 86 -58 190 -59 85 -1 101 2
152 27 110 54 156 137 165 295 5 87 5 92 -14 92 -11 0 -22 -2 -25 -5z"/>
</g>
</svg>
